<?xml version="1.0" encoding="utf-8"?>
<!-- Generator: Adobe Illustrator 25.0.0, SVG Export Plug-In . SVG Version: 6.00 Build 0)  -->
<svg version="1.1" id="Layer_1" xmlns="http://www.w3.org/2000/svg" xmlns:xlink="http://www.w3.org/1999/xlink" x="0px" y="0px"
	 viewBox="0 0 9.2 45.1" style="enable-background:new 0 0 9.2 45.1;" xml:space="preserve">
<style type="text/css">
	.st0{fill:#010101;}
	.st1{fill:#FFFFFF;stroke:#000000;stroke-miterlimit:10;}
</style>
<path class="st0" d="M4.9,36.1c-1.2-0.1-2.2,0.3-3,0.9L4.6,0h0.1l2.6,37C6.7,36.5,5.9,36.1,4.9,36.1z"/>
<ellipse class="st1" cx="4.4" cy="40.5" rx="2.6" ry="2.4"/>
<path class="st0" d="M9.2,40.8c0.2-2.5-1.8-4.7-4.3-4.9S0.2,37.7,0,40.2c-0.2,2.5,1.8,4.7,4.3,4.9C6.8,45.2,9,43.3,9.2,40.8z
	 M6,40.6c0,0.8-0.7,1.4-1.5,1.3c-0.8,0-1.4-0.7-1.3-1.5c0-0.8,0.7-1.4,1.5-1.3C5.5,39.1,6,39.8,6,40.6z"/>
</svg>
