<?xml version="1.0" encoding="utf-8"?>
<!-- Generator: Adobe Illustrator 25.0.0, SVG Export Plug-In . SVG Version: 6.00 Build 0)  -->
<svg version="1.1" id="Layer_1" xmlns="http://www.w3.org/2000/svg" xmlns:xlink="http://www.w3.org/1999/xlink" x="0px" y="0px"
	 viewBox="0 0 162.7 83.7" style="enable-background:new 0 0 162.7 83.7;" xml:space="preserve">
<style type="text/css">
	.st0{enable-background:new    ;}
	.st1{fill:#231F20;}
	.st2{fill:none;stroke:#F15A29;stroke-width:1.57;stroke-miterlimit:10;}
</style>
<g id="Layer_2_1_">
	<g id="Logo">
		<g class="st0">
			<path class="st1" d="M0,32.5L2.1,30c1.5,1.2,3,2,4.9,2c1.5,0,2.4-0.6,2.4-1.5v0c0-0.9-0.6-1.4-3.3-2.1c-3.3-0.8-5.4-1.8-5.4-5v0
				c0-3,2.4-4.9,5.7-4.9c2.4,0,4.4,0.7,6.1,2.1l-1.9,2.7c-1.4-1-2.9-1.6-4.2-1.6c-1.4,0-2.1,0.6-2.1,1.4v0c0,1.1,0.7,1.4,3.5,2.1
				c3.3,0.9,5.2,2.1,5.2,4.9v0c0,3.2-2.5,5.1-6,5.1C4.5,35.1,2,34.3,0,32.5z"/>
			<path class="st1" d="M18.4,18.6h6.7c3.9,0,6.3,2.3,6.3,5.6v0c0,3.8-2.9,5.7-6.6,5.7H22v4.9h-3.6V18.6z M24.8,26.8
				c1.8,0,2.8-1.1,2.8-2.5v0c0-1.6-1.1-2.5-2.9-2.5H22v5H24.8z"/>
		</g>
		<g class="st0">
			<path class="st1" d="M36.3,18.6h12.3v3.2h-8.8v3.3h7.7v3.2h-7.7v3.4h8.9v3.2H36.3V18.6z"/>
		</g>
		<g class="st0">
			<path class="st1" d="M59.5,18.5h3.3l7,16.5H66l-1.5-3.7h-6.9l-1.5,3.7h-3.7L59.5,18.5z M63.2,28.1l-2.2-5.3l-2.2,5.3H63.2z"/>
		</g>
		<g class="st0">
			<path class="st1" d="M74.6,18.6h3.6v7.1l6.6-7.1h4.3l-6.7,6.9l7,9.4h-4.3l-5.1-7l-1.9,2v5h-3.6V18.6z"/>
		</g>
		<g class="st0">
			<path class="st1" d="M93.6,18.6h12.3v3.2h-8.8v3.3h7.7v3.2h-7.7v3.4h8.9v3.2H93.6V18.6z"/>
		</g>
		<g class="st0">
			<path class="st1" d="M117.1,18.5h3.3l7,16.5h-3.8l-1.5-3.7h-6.9l-1.5,3.7h-3.7L117.1,18.5z M120.9,28.1l-2.2-5.3l-2.2,5.3H120.9z
				"/>
			<path class="st1" d="M130.3,32.5l2.1-2.5c1.5,1.2,3,2,4.9,2c1.5,0,2.4-0.6,2.4-1.5v0c0-0.9-0.6-1.4-3.3-2.1
				c-3.3-0.8-5.4-1.8-5.4-5v0c0-3,2.4-4.9,5.7-4.9c2.4,0,4.4,0.7,6.1,2.1l-1.9,2.7c-1.4-1-2.9-1.6-4.2-1.6s-2.1,0.6-2.1,1.4v0
				c0,1.1,0.7,1.4,3.5,2.1c3.3,0.9,5.2,2.1,5.2,4.9v0c0,3.2-2.5,5.1-6,5.1C134.7,35.1,132.2,34.3,130.3,32.5z"/>
		</g>
		<g class="st0">
			<path class="st1" d="M152.8,28.5l-6.3-9.9h4.2l3.9,6.6l4-6.6h4.1l-6.3,9.8v6.5h-3.6V28.5z"/>
		</g>
		<g class="st0">
			<path class="st1" d="M49.2,82.6l0.8-1c0.6,0.5,1.2,0.8,1.9,0.8c0.6,0,0.9-0.2,0.9-0.6v0c0-0.4-0.2-0.5-1.3-0.8
				c-1.3-0.3-2.1-0.7-2.1-2v0c0-1.2,0.9-1.9,2.3-1.9c0.9,0,1.7,0.3,2.4,0.8l-0.7,1.1c-0.6-0.4-1.1-0.6-1.7-0.6
				c-0.5,0-0.8,0.2-0.8,0.6v0c0,0.4,0.3,0.6,1.4,0.8c1.3,0.3,2,0.8,2,1.9v0c0,1.3-1,2-2.4,2C51,83.6,50,83.3,49.2,82.6z"/>
		</g>
		<g class="st0">
			<path class="st1" d="M57.8,78.4h-2v-1.3h5.3v1.3h-2v5.1h-1.4V78.4z"/>
			<path class="st1" d="M63,77.1H66c0.8,0,1.5,0.2,1.9,0.7c0.4,0.4,0.6,0.9,0.6,1.5v0c0,1-0.6,1.7-1.4,2l1.6,2.3h-1.7l-1.4-2.1h-1.1
				v2.1H63V77.1z M65.9,80.2c0.7,0,1.1-0.4,1.1-0.9v0c0-0.6-0.4-0.9-1.1-0.9h-1.4v1.8H65.9z"/>
		</g>
		<g class="st0">
			<path class="st1" d="M72.6,77.1h1.3l2.8,6.5h-1.5l-0.6-1.4h-2.7l-0.6,1.4h-1.4L72.6,77.1z M74.1,80.9l-0.9-2.1l-0.9,2.1H74.1z"/>
		</g>
		<g class="st0">
			<path class="st1" d="M79.1,78.4h-2v-1.3h5.3v1.3h-2v5.1h-1.4V78.4z"/>
			<path class="st1" d="M84.2,77.1h4.8v1.3h-3.4v1.3h3v1.3h-3v1.3h3.5v1.3h-4.9V77.1z"/>
			<path class="st1" d="M90.8,80.3L90.8,80.3c0-1.8,1.4-3.3,3.4-3.3c1.2,0,1.9,0.3,2.5,0.9L95.9,79c-0.5-0.4-0.9-0.7-1.7-0.7
				c-1,0-1.8,0.9-1.8,2v0c0,1.2,0.8,2,1.9,2c0.5,0,1-0.1,1.3-0.4v-0.9h-1.4v-1.2H97v2.8c-0.7,0.6-1.6,1-2.7,1
				C92.2,83.7,90.8,82.2,90.8,80.3z"/>
		</g>
		<g class="st0">
			<path class="st1" d="M99.1,77.1h1.4v6.4h-1.4V77.1z"/>
		</g>
		<g class="st0">
			<path class="st1" d="M103.1,77.1h4.9v1.3h-3.4v1.3h3v1.3h-3v1.3h3.5v1.3h-4.9V77.1z"/>
		</g>
		<g class="st0">
			<path class="st1" d="M109.5,82.6l0.8-1c0.6,0.5,1.2,0.8,1.9,0.8c0.6,0,0.9-0.2,0.9-0.6v0c0-0.4-0.2-0.5-1.3-0.8
				c-1.3-0.3-2.1-0.7-2.1-2v0c0-1.2,0.9-1.9,2.3-1.9c0.9,0,1.7,0.3,2.4,0.8l-0.7,1.1c-0.6-0.4-1.1-0.6-1.7-0.6
				c-0.5,0-0.8,0.2-0.8,0.6v0c0,0.4,0.3,0.6,1.4,0.8c1.3,0.3,2,0.8,2,1.9v0c0,1.3-1,2-2.4,2C111.3,83.6,110.3,83.3,109.5,82.6z"/>
		</g>
		<line class="st2" x1="47.8" y1="0.8" x2="117" y2="0.8"/>
		<polyline class="st2" points="47.8,52 79,52 79,60.4 87.4,52 117,52 		"/>
	</g>
</g>
</svg>
